<svg width="18" height="15" viewBox="0 0 18 15" fill="none" xmlns="http://www.w3.org/2000/svg">
<g clip-path="url(#clip0_1_374)">
<path fill-rule="evenodd" clip-rule="evenodd" d="M4.3125 5.62549C4.3125 4.38229 4.80636 3.19 5.68544 2.31093C6.56451 1.43185 7.7568 0.937988 9 0.937988C10.2432 0.937988 11.4355 1.43185 12.3146 2.31093C13.1936 3.19 13.6875 4.38229 13.6875 5.62549C13.6875 6.37861 13.4469 7.23549 13.1038 8.08049C12.7569 8.93299 12.29 9.80986 11.8038 10.6149C11.36 11.3485 10.8787 12.0589 10.3619 12.743C9.93187 13.3086 9.53938 13.763 9.2925 13.9599C9.20944 14.0262 9.1063 14.0623 9 14.0623C8.8937 14.0623 8.79056 14.0262 8.7075 13.9599C8.46062 13.763 8.06813 13.3086 7.63812 12.743C7.12146 12.0588 6.64041 11.3485 6.19687 10.6149C5.70937 9.80986 5.24312 8.93299 4.89687 8.07986C4.55312 7.23549 4.3125 6.37861 4.3125 5.62549ZM9 7.65611C9.53872 7.65611 10.0554 7.44211 10.4363 7.06117C10.8172 6.68024 11.0312 6.16358 11.0312 5.62486C11.0312 5.08614 10.8172 4.56949 10.4363 4.18855C10.0554 3.80762 9.53872 3.59361 9 3.59361C8.46128 3.59361 7.94462 3.80762 7.56369 4.18855C7.18276 4.56949 6.96875 5.08614 6.96875 5.62486C6.96875 6.16358 7.18276 6.68024 7.56369 7.06117C7.94462 7.44211 8.46128 7.65611 9 7.65611Z" fill="white"/>
</g>
<defs>
<clipPath id="clip0_1_374">
<rect width="18" height="15" fill="white"/>
</clipPath>
</defs>
</svg>
